<svg width="99.467" height="13.214" fill="none" xmlns="http://www.w3.org/2000/svg"><path d="M16.42 0h-1.342v10.387h1.343V0Zm64.43 0h-1.343v10.387h1.343V0Zm16.573 3.258q-.768-.36-1.704-.36-.76 0-1.406.272-.034.014-.067.03-.318.142-.586.349-.297.23-.532.539V0h-1.343v10.387h1.288V9.211q.234.322.532.564.273.221.6.376l.078.036q.655.286 1.436.286.936 0 1.704-.36.115-.053.227-.115.405-.227.726-.54.357-.347.61-.8l.037-.067q.445-.838.445-1.912 0-1.105-.468-1.95l-.014-.026q-.246-.437-.59-.775-.329-.322-.746-.554-.112-.062-.227-.116ZM9.965 1.26Q8.487.49 6.607.49q-1.879 0-3.356.77l-.083.043q-.877.473-1.527 1.161-.463.491-.81 1.092-.121.21-.225.428Q0 5.264 0 6.833q0 1.539.581 2.812.111.243.243.476.372.656.88 1.182.618.642 1.437 1.09l.109.059q1.451.762 3.302.762.77 0 1.58-.168.813-.167 1.428-.488l-.308-.896q-.587.308-1.302.461-.714.154-1.398.154-1.64 0-2.895-.693-.678-.377-1.193-.911-.434-.45-.752-1.014l-.059-.108q-.631-1.192-.631-2.718 0-1.446.581-2.597.056-.11.116-.216.313-.551.739-.993.528-.548 1.23-.928 1.268-.687 2.919-.687 1.637 0 2.905.66.787.406 1.354 1.017.347.374.611.825.061.102.117.208.584 1.109.584 2.526 0 1.316-.345 2.037-.245.517-.63.664-.153.057-.327.057-.202 0-.363-.081-.116-.06-.211-.161-.222-.247-.222-.766V3.36H8.86v1.135q-.231-.313-.526-.544-.26-.204-.568-.345-.657-.304-1.467-.304-.756 0-1.397.272-.19.081-.37.186-.316.183-.577.427-.384.359-.646.848-.05.093-.095.188-.346.745-.346 1.65 0 .96.378 1.734.03.062.063.122.25.465.611.816.275.266.612.466.187.11.386.194.634.268 1.381.268.882 0 1.559-.342.314-.16.572-.383.302-.26.528-.608.104.527.416.854.07.073.152.137.037.029.076.055.421.287 1.038.287.547 0 .98-.221.5-.254.852-.801.66-1.022.66-2.817 0-1.483-.572-2.697-.119-.252-.262-.492-.344-.577-.798-1.048-.647-.673-1.52-1.129l-.015-.008Zm14.077 2.394q-.817-.756-2.358-.756-.896 0-1.696.247-.796.242-1.37.704l.56 1.008q.434-.362 1.063-.578.428-.148.866-.195.21-.023.423-.023.98 0 1.483.461.082.075.15.16.356.442.356 1.17v.266h-2.13q-1.551 0-2.265.595-.304.253-.479.576-.236.436-.236 1 0 .509.204.917.186.375.545.665.748.602 1.996.602.851 0 1.473-.274.494-.216.806-.585.084-.098.155-.208v.981h1.274v-4.48q0-1.36-.676-2.108-.068-.076-.144-.145Zm3.77 6.595q.803.224 1.67.224 1.486 0 2.344-.595.474-.329.687-.78.175-.37.175-.823 0-.725-.36-1.138-.016-.02-.034-.038-.176-.19-.385-.33-.254-.17-.558-.265-.553-.177-1.45-.331-.669-.127-1.041-.222-.37-.1-.623-.308-.093-.079-.152-.178-.1-.168-.1-.396 0-.172.06-.319.105-.249.387-.423.448-.28 1.303-.28 1.096 0 1.935.464.106.058.207.124l.575-1.067q-.479-.307-1.22-.488-.742-.182-1.484-.182-1.415 0-2.256.609-.445.323-.654.76-.183.384-.183.857 0 .744.368 1.173l.039.043q.207.222.455.378.239.15.515.241.568.181 1.463.321.66.11 1.015.202.36.092.595.287.09.073.146.167.093.155.093.366 0 .249-.107.436-.327.573-1.656.573-.16 0-.32-.01-.552-.037-1.095-.199-.698-.212-1.19-.564l-.56 1.066q.478.376 1.316.623l.08.022Zm13.236-3.123q.028-.252.028-.406 0-1.11-.463-1.972l-.01-.018q-.27-.503-.665-.876-.286-.271-.636-.474-.114-.066-.232-.123-.745-.359-1.662-.359-.888 0-1.624.335-.148.067-.29.147-.355.203-.646.474-.402.373-.684.876-.084.152-.153.31-.329.747-.329 1.639 0 .895.335 1.64.072.163.161.318.203.352.472.641.396.424.936.713.91.482 2.085.482.927 0 1.675-.308.535-.222.945-.586.163-.145.306-.313l-.742-.868q-.29.323-.649.53-.638.369-1.49.369-.89 0-1.542-.394-.15-.09-.287-.2-.315-.257-.518-.583-.27-.435-.343-.994h6.022Zm3.513-3.382q-.194.21-.335.47V2.967h-1.288v7.42h1.343V6.692q0-1.163.578-1.808l.044-.048q.127-.133.274-.24.572-.412 1.442-.412.194 0 .307.017V2.898q-.98 0-1.668.335-.408.2-.697.511Zm16.573-.486q-.768-.36-1.704-.36-.81 0-1.484.301l-.03.014q-.312.143-.575.35-.313.245-.557.58V2.967h-1.288v10.137h1.343V9.267q.274.35.62.601.235.172.504.298l.07.03q.638.278 1.397.278.936 0 1.704-.36.115-.053.227-.115.405-.227.726-.54.357-.347.61-.8l.037-.067q.445-.838.445-1.912 0-1.105-.468-1.95l-.014-.026q-.246-.437-.59-.775-.329-.322-.746-.554-.112-.062-.227-.116Zm5.533.486q-.195.21-.335.47V2.967h-1.288v7.42h1.343V6.692q0-1.163.578-1.808l.044-.048q.127-.133.274-.24.572-.412 1.442-.412.195 0 .307.017V2.898q-.98 0-1.668.335-.408.2-.697.511Zm5.385 6.365q.788.364 1.742.364.958 0 1.744-.368.12-.056.235-.121.47-.264.83-.634.311-.32.54-.72.087-.148.158-.302.342-.746.342-1.65 0-.917-.351-1.67-.068-.146-.148-.284-.239-.416-.566-.743-.352-.351-.805-.6-.098-.055-.199-.103-.8-.38-1.78-.38-.977 0-1.778.376-.107.05-.211.106-.47.257-.83.621-.318.32-.55.723-.076.13-.14.266-.356.76-.356 1.689 0 .913.347 1.666.068.146.148.285.224.387.525.7.37.383.856.654.122.067.247.125ZM88.47 3.654q-.817-.756-2.358-.756-.896 0-1.696.247-.796.242-1.37.704l.56 1.008q.434-.362 1.063-.578.428-.148.866-.195.21-.023.423-.023.98 0 1.483.461.082.075.15.16.356.442.356 1.17v.266h-2.13q-1.551 0-2.265.595-.304.253-.479.576-.236.436-.236 1 0 .509.203.917.187.375.546.665.748.602 1.996.602.851 0 1.473-.274.494-.216.806-.585.084-.098.155-.208v.981h1.274v-4.48q0-1.36-.676-2.108-.068-.076-.144-.145Zm-52.238.651q.514-.275 1.176-.275.64 0 1.141.263.254.134.472.335.239.217.405.48.29.457.361 1.051h-4.761q.077-.652.405-1.133.152-.222.357-.408.206-.186.444-.313ZM60.38 9.08q-.483.217-1.063.217-.502 0-.94-.169-.172-.066-.335-.16-.25-.144-.452-.338-.262-.252-.444-.588-.32-.594-.32-1.363 0-.773.327-1.36.196-.35.475-.608.191-.176.42-.309.146-.083.3-.146.447-.182.969-.182.6 0 1.097.228.094.042.185.094.206.116.38.269.306.268.515.647l.01.016q.318.59.318 1.35 0 .748-.31 1.33l-.018.034q-.202.367-.496.634-.182.166-.4.293-.106.061-.218.111Zm14.455.01q-.475.207-1.04.207-.58 0-1.064-.217-.112-.05-.218-.111-.212-.124-.39-.284-.301-.27-.51-.643l-.018-.034q-.31-.582-.31-1.33 0-.76.32-1.35l.009-.016q.214-.386.528-.656.17-.147.37-.26.09-.052.185-.094.496-.228 1.097-.228.586 0 1.075.218.104.047.204.104.217.122.398.285.292.263.49.63.325.595.325 1.368 0 .759-.316 1.348l-.009.015q-.191.355-.47.616-.19.177-.418.31-.116.068-.238.121Zm21.833-.01q-.483.217-1.063.217-.502 0-.94-.169-.172-.066-.335-.16-.25-.144-.452-.338-.262-.252-.444-.588-.32-.594-.32-1.363 0-.773.32-1.367.189-.35.464-.604.194-.18.432-.312.147-.083.303-.144.451-.178.972-.178.6 0 1.097.228.094.042.185.094.205.116.38.269.306.268.515.647l.01.016q.318.59.318 1.35 0 .748-.31 1.33l-.018.034q-.202.367-.496.634-.182.166-.4.293-.106.061-.218.111Zm-89.08.06q-.488.239-1.094.239-.687 0-1.21-.293-.275-.154-.506-.39-.136-.142-.245-.303-.418-.619-.418-1.52 0-.92.432-1.54.1-.143.224-.271.208-.214.455-.36.54-.32 1.268-.32.628 0 1.13.25l.094.05q.184.103.342.237.305.258.512.632.318.567.318 1.323 0 .755-.318 1.322-.203.367-.5.625-.163.141-.354.25-.064.037-.13.069Zm15.118-.048q-.56.342-1.33.342-.769 0-1.203-.322-.197-.146-.305-.34-.13-.236-.13-.542 0-.357.166-.603.367-.545 1.544-.545h2.071v1.036q-.15.374-.407.646-.177.188-.406.328Zm64.428 0q-.56.342-1.33.342-.769 0-1.203-.322-.197-.146-.305-.34-.13-.236-.13-.542 0-.357.166-.603.367-.545 1.544-.545h2.071v1.036q-.15.374-.407.646-.177.188-.406.328ZM54.22 10.387h-7v.868h7v-.868Z" fill="#F8A9B1" fill-rule="evenodd"/></svg>