<svg width="265" height="93" fill="none" xmlns="http://www.w3.org/2000/svg"><defs><clipPath id="a"><path fill="#fff" fill-opacity="0" d="M0 0h60v60H0z"/></clipPath></defs><path d="M0 0h265v60H0z"/><path d="M0 0h60v60H0z"/><g clip-path="url(#a)"><path d="M26.7 22.275v-12" stroke="#000" stroke-width=".9" stroke-linecap="round"/><path d="M29.85 7.875a3.15 3.15 0 1 1-6.3 0 3.15 3.15 0 0 1 6.3 0Z" fill="#000" fill-rule="evenodd"/><path d="M26.7 37.725v12" stroke="#000" stroke-width=".9" stroke-linecap="round"/><path d="M23.55 52.125a3.15 3.15 0 1 1 6.3 0 3.15 3.15 0 0 1-6.3 0Z" fill="#000" fill-rule="evenodd"/><path d="M34.425 30h12" stroke="#000" stroke-width=".9" stroke-linecap="round"/><path d="M48.825 33.15a3.15 3.15 0 1 1 0-6.3 3.15 3.15 0 0 1 0 6.3Z" fill="#000" fill-rule="evenodd"/><path d="M18.975 30h-12" stroke="#000" stroke-width=".9" stroke-linecap="round"/><path d="M4.575 26.85a3.15 3.15 0 1 1 0 6.3 3.15 3.15 0 0 1 0-6.3Z" fill="#000" fill-rule="evenodd"/><path d="m30.562 36.69 6 10.392" stroke="#000" stroke-width=".9" stroke-linecap="round"/><path d="M35.034 50.736a3.15 3.15 0 1 1 5.457-3.15 3.15 3.15 0 0 1-5.457 3.15Z" fill="#000" fill-rule="evenodd"/><path d="m22.837 23.31-6-10.392" stroke="#000" stroke-width=".9" stroke-linecap="round"/><path d="M18.366 9.264a3.15 3.15 0 1 1-5.457 3.15 3.15 3.15 0 0 1 5.457-3.15Z" fill="#000" fill-rule="evenodd"/><path d="m33.39 33.862 10.392 6" stroke="#000" stroke-width=".9" stroke-linecap="round"/><path d="M44.286 43.79a3.15 3.15 0 1 1 3.15-5.456 3.15 3.15 0 0 1-3.15 5.456Z" fill="#000" fill-rule="evenodd"/><path d="m20.01 26.137-10.392-6" stroke="#000" stroke-width=".9" stroke-linecap="round"/><path d="M9.114 16.21a3.15 3.15 0 1 1-3.15 5.455 3.15 3.15 0 0 1 3.15-5.456Z" fill="#000" fill-rule="evenodd"/><path d="m43.14 19.978 10.392-6" stroke="#C93" stroke-width=".9" stroke-linecap="round"/><path d="M57.185 15.506a3.15 3.15 0 1 1-3.15-5.456 3.15 3.15 0 0 1 3.15 5.456Z" fill="#C93" fill-rule="evenodd"/><path d="m19.999 33.853-10.393 6" stroke="#000" stroke-width=".9" stroke-linecap="round"/><path d="M5.953 38.325a3.15 3.15 0 1 1 3.15 5.456 3.15 3.15 0 0 1-3.15-5.456Z" fill="#000" fill-rule="evenodd"/><path d="m30.562 23.084 6-10.392" stroke="#000" stroke-width=".9" stroke-linecap="round"/><path d="M40.49 12.189a3.15 3.15 0 1 1-5.456-3.15 3.15 3.15 0 0 1 5.456 3.15Z" fill="#000" fill-rule="evenodd"/><path d="m22.837 36.465-6 10.392" stroke="#000" stroke-width=".9" stroke-linecap="round"/><path d="M12.909 47.36a3.15 3.15 0 1 1 5.456 3.15 3.15 3.15 0 0 1-5.456-3.15Z" fill="#000" fill-rule="evenodd"/></g><path d="M195.037 42.845c1.4.92 3.05 1.38 4.95 1.38 1.9 0 3.54-.46 4.92-1.38 1.4-.94 2.48-2.2 3.24-3.78.76-1.6 1.14-3.38 1.14-5.34s-.38-3.73-1.14-5.31c-.76-1.6-1.84-2.86-3.24-3.78-1.38-.94-3.02-1.41-4.92-1.41s-3.55.47-4.95 1.41c-1.38.92-2.45 2.18-3.21 3.78-.76 1.58-1.14 3.35-1.14 5.31 0 1.96.38 3.74 1.14 5.34.76 1.58 1.83 2.84 3.21 3.78Zm-93.128 1.02c.82.18 1.63.27 2.43.27q2.697 0 4.342-1.316.111-.089.218-.184c1.12-1.02 1.68-2.37 1.68-4.05 0-1.12-.3-2.03-.9-2.73-.6-.72-1.54-1.46-2.82-2.22l-3.69-2.19c-1.1-.64-1.93-1.24-2.49-1.8-.56-.56-.84-1.27-.84-2.13 0-.62.16-1.15.48-1.59.34-.46.78-.81 1.32-1.05.54-.26 1.1-.39 1.68-.39 1.7 0 3.03.43 3.99 1.29.96.86 1.61 2.3 1.95 4.32h.54v-3.21c0-.58-.2-1.09-.6-1.53-.38-.44-.89-.81-1.53-1.11-.64-.32-1.34-.56-2.1-.72a10.9 10.9 0 0 0-2.25-.24q-2.272 0-3.794 1.069-.226.158-.436.341c-1.06.92-1.59 2.15-1.59 3.69 0 1.12.26 2.07.78 2.85.54.78 1.45 1.55 2.73 2.31l3.69 2.19c1.1.64 1.92 1.27 2.46 1.89.56.62.84 1.37.84 2.25 0 .66-.19 1.22-.57 1.68-.36.46-.84.81-1.44 1.05-.6.22-1.24.33-1.92.33-1.7 0-3.05-.44-4.05-1.32q-1.47-1.32-1.98-4.35h-.54v3.21c0 .56.2 1.07.6 1.53.4.44.93.82 1.59 1.14.68.32 1.42.56 2.22.72Zm-38.622-16.44v16.2h13.35v-1.2h-10.65v-15q0-1.5-.24-2.28c-.16-.52-.44-.87-.84-1.05q-.57-.27-1.62-.27h-2.7v.6h.6c.9 0 1.47.28 1.71.84.26.54.39 1.26.39 2.16Zm30.589 16.11c.64.16 1.18.24 1.62.24q.33 0 .63-.06c.22-.02.41-.05.57-.09v-.6c-.84-.08-1.48-.34-1.92-.78-.44-.46-.9-1.25-1.38-2.37l-6.6-16.05h-.9l-8.4 19.8h1.35l2.4-5.7h8.4l.75 1.95c.44 1.16.97 2.02 1.59 2.58.62.54 1.25.9 1.89 1.08Zm21.179-16.11v16.2h10.35c.6 0 1.08-.13 1.44-.39.38-.28.65-.65.81-1.11l1.05-2.85-.6-.15c-.46 1.2-1.09 2.05-1.89 2.55-.78.5-1.85.75-3.21.75h-5.25v-8.4h8.1v-1.2h-8.1v-7.8h5.58c1.2 0 2.12.28 2.76.84.66.54.99 1.41.99 2.61h.6v-2.25c0-.4-.07-.78-.21-1.14-.14-.38-.39-.68-.75-.9-.36-.24-.89-.36-1.59-.36h-12.78v.6h.6c.9 0 1.47.28 1.71.84.26.54.39 1.26.39 2.16Zm28.975 16.11c.58.26 1.21.39 1.89.39.4 0 .76-.03 1.08-.09q.51-.09.75-.21v-.6c-.74-.08-1.41-.35-2.01-.81-.6-.48-1.28-1.36-2.04-2.64l-3.15-5.25q1.11-.27 2.22-.81.504-.245.928-.59.509-.413.902-.97.75-1.05.75-2.76 0-1.44-.54-2.4c-.34-.64-.8-1.16-1.38-1.56-.56-.4-1.18-.7-1.86-.9-.66-.2-1.32-.33-1.98-.39-.66-.08-1.24-.12-1.74-.12h-7.8v.6h.6c.9 0 1.47.28 1.71.84.26.54.39 1.26.39 2.16v16.2h2.7v-9.15h2.1l3 5.1c.66 1.1 1.26 1.97 1.8 2.61.56.62 1.12 1.07 1.68 1.35Zm14.062-16.11v16.2h2.7v-8.1h3.3c.34 0 .78-.03 1.32-.09q.81-.12 1.71-.42.9-.33 1.71-.96c.56-.42 1.01-.97 1.35-1.65.34-.7.51-1.56.51-2.58q0-1.62-.54-2.7c-.34-.72-.8-1.3-1.38-1.74-.56-.44-1.18-.77-1.86-.99a7.86 7.86 0 0 0-1.98-.45c-.64-.08-1.22-.12-1.74-.12h-7.8v.6h.6c.9 0 1.47.28 1.71.84.26.54.39 1.26.39 2.16Zm27.833 16.11c.58.26 1.21.39 1.89.39.4 0 .76-.03 1.08-.09q.51-.09.75-.21v-.6q-.496-.054-.949-.22-.563-.208-1.061-.59c-.6-.48-1.28-1.36-2.04-2.64l-3.15-5.25q1.11-.27 2.22-.81.504-.245.928-.59.509-.413.902-.97.75-1.05.75-2.76 0-1.44-.54-2.4c-.34-.64-.8-1.16-1.38-1.56-.56-.4-1.18-.7-1.86-.9-.66-.2-1.32-.33-1.98-.39-.66-.08-1.24-.12-1.74-.12h-7.8v.6h.6c.9 0 1.47.28 1.71.84.26.54.39 1.26.39 2.16v16.2h2.7v-9.15h2.1l3 5.1c.66 1.1 1.26 1.97 1.8 2.61.56.62 1.12 1.07 1.68 1.35Zm27.714-16.11v16.2h13.35v-1.2h-10.65v-15q0-1.5-.24-2.28c-.16-.52-.44-.87-.84-1.05-.38-.18-.92-.27-1.62-.27h-2.7v.6h.6c.9 0 1.47.28 1.71.84.26.54.39 1.26.39 2.16Zm30.589 16.11c.639.16 1.18.24 1.62.24.22 0 .429-.02.63-.06.219-.02.409-.05.57-.09v-.6c-.84-.08-1.48-.34-1.92-.78-.44-.46-.9-1.25-1.381-2.37l-6.599-16.05h-.901l-8.399 19.8h1.349l2.401-5.7h8.399l.75 1.95q.661 1.74 1.59 2.58c.621.54 1.25.9 1.891 1.08Zm5.182-16.11v16.2h6c.94 0 1.89-.07 2.85-.21q1.47-.24 2.67-.81c.82-.38 1.48-.92 1.98-1.62.5-.72.75-1.64.75-2.76 0-.82-.14-1.55-.42-2.19-.28-.64-.78-1.18-1.5-1.62-.72-.46-1.73-.79-3.03-.99 1.36-.46 2.35-1.07 2.97-1.83.62-.78.93-1.62.93-2.52 0-1.16-.27-2.09-.81-2.79q-.332-.43-.739-.77-.587-.489-1.331-.79c-.84-.36-1.73-.6-2.67-.72-.92-.12-1.77-.18-2.55-.18h-7.8v.6h.6c.9 0 1.47.28 1.71.84.26.54.39 1.26.39 2.16Zm-46.947 15.05q-1.101.55-2.476.55c-1.3 0-2.43-.38-3.39-1.14-.94-.76-1.66-1.83-2.16-3.21q-.75-2.1-.75-4.95t.75-4.92c.5-1.4 1.22-2.48 2.16-3.24.96-.76 2.09-1.14 3.39-1.14q1.375 0 2.476.55.483.242.914.59c.94.76 1.66 1.84 2.16 3.24q.75 2.07.75 4.92t-.75 4.95c-.5 1.38-1.22 2.45-2.16 3.21q-.431.348-.914.59Zm-64.853-9.05h-2.16v-8.25c.3-.08.65-.15 1.05-.21.42-.06.79-.09 1.11-.09.44 0 .93.08 1.47.24.54.16 1.06.41 1.56.75s.91.78 1.23 1.32c.32.54.48 1.2.48 1.98s-.16 1.44-.48 1.98c-.32.54-.73.98-1.23 1.32-.5.32-1.02.56-1.56.72-.54.16-1.03.24-1.47.24Zm25.432 1.05h-2.25v-9.3c.3-.08.65-.15 1.05-.21.42-.06.82-.09 1.2-.09.42 0 .89.08 1.41.24.52.16 1.03.43 1.53.81.5.38.91.88 1.23 1.5.32.6.48 1.35.48 2.25 0 .9-.16 1.66-.48 2.28-.32.6-.73 1.09-1.23 1.47-.5.38-1.01.65-1.53.81-.52.16-.99.24-1.41.24Zm16.463-1.05h-2.16v-8.25c.3-.08.65-.15 1.05-.21.42-.06.79-.09 1.11-.09.44 0 .93.08 1.47.24.54.16 1.06.41 1.56.75s.91.78 1.23 1.32c.32.54.48 1.2.48 1.98s-.16 1.44-.48 1.98c-.32.54-.73.98-1.23 1.32-.5.32-1.02.56-1.56.72-.54.16-1.03.24-1.47.24Zm75.455-.45h-2.85v-7.8c.3-.08.65-.15 1.05-.21.42-.06.82-.09 1.2-.09.8 0 1.61.14 2.43.42.84.26 1.54.69 2.1 1.29.58.6.87 1.38.87 2.34 0 .9-.24 1.65-.72 2.25-.46.6-1.06 1.05-1.8 1.35-.72.3-1.48.45-2.28.45Zm-165.914 3.75h-7.35l3.75-8.7 3.6 8.7Zm150.352 0h-7.35l3.75-8.7 3.6 8.7Zm19.762 4.77c-.98.72-2.38 1.08-4.2 1.08-.46 0-.94-.03-1.44-.09-.48-.08-.95-.19-1.41-.33v-7.98h2.85c1.88 0 3.3.36 4.26 1.08.96.72 1.44 1.76 1.44 3.12s-.5 2.4-1.5 3.12Zm-93.309 24.186q.53.39 1.347.39.819 0 1.346-.392.04-.03.079-.062.169-.14.287-.316.265-.39.277-.952h-.533q-.009.355-.168.62-.098.163-.253.292-.055.046-.114.085-.378.25-.921.25-.538 0-.918-.244-.065-.042-.125-.09-.164-.135-.265-.307-.154-.26-.162-.606h-.52q.01.56.272.95.119.176.289.318.04.033.082.064ZM51.809 74.12q1.005.45 2.211.45 1.05 0 1.952-.35.684-.263 1.21-.711.17-.146.325-.31l-.448-.462q-.42.416-.92.685-.914.491-2.091.491-.925 0-1.725-.317-.264-.104-.514-.243-.548-.305-.968-.735-.353-.361-.615-.81-.15-.258-.26-.532-.314-.775-.314-1.676 0-.897.312-1.668.111-.275.262-.534.268-.46.63-.827.414-.421.953-.72.25-.14.514-.244.8-.317 1.725-.317 1.244 0 2.185.534.447.254.826.628l.448-.462q-.184-.197-.391-.365-.5-.408-1.137-.65-.896-.345-1.959-.345-1.195 0-2.193.444-.206.091-.404.202-.597.332-1.063.794-.437.434-.76.983-.16.276-.282.568-.38.91-.38 1.979 0 1.082.388 2.001.12.282.275.548.322.55.76.983.465.463 1.062.795.19.105.386.193Zm72.945-2.818q-.44-.455-1.25-.609.669-.194 1.076-.628.23-.246.33-.536.077-.223.077-.473 0-.37-.14-.678-.197-.435-.674-.744-.81-.526-2.03-.526-.582 0-1.138.122-.765.167-1.48.565l.212.56q.626-.36 1.3-.514.499-.114 1.024-.114.964 0 1.586.372.351.207.505.514.121.24.121.539 0 .216-.077.4-.132.317-.491.54-.567.349-1.449.349h-1.148v.533h1.175q1.009 0 1.603.372.351.218.495.53.1.218.1.482 0 .257-.089.478-.163.405-.625.69-.715.442-1.75.442-.168 0-.334-.013-.527-.04-1.044-.21-.68-.225-1.169-.645l-.28.52q.561.46 1.309.707.415.134.841.194.342.048.69.048.855 0 1.583-.263.728-.266 1.155-.755.226-.26.333-.563.094-.27.094-.572 0-.377-.144-.688-.108-.232-.297-.426Zm-7.915-3.506q-.724-.657-2.045-.657-.635 0-1.229.156-.193.05-.381.117-.769.27-1.316.762l.349.503q.465-.42 1.128-.67.226-.086.459-.143.454-.11.935-.11 1.059 0 1.612.529l.005.004q.046.044.089.092.465.523.465 1.46v.588h-2.509q-1.425 0-2.078.567-.275.24-.433.541-.217.411-.217.936 0 .513.21.917.175.336.495.597.707.57 1.927.57.937 0 1.607-.355.419-.224.714-.558.179-.201.311-.443V74.5h.67v-4.635q0-1.232-.612-1.914-.056-.062-.116-.12l-.04-.036Zm10.737 3.219h6.289l.014-.195q0-.993-.398-1.788-.029-.059-.06-.116-.292-.54-.721-.925-.24-.216-.523-.384-.174-.103-.357-.183-.651-.285-1.428-.285-.731 0-1.356.256-.226.093-.438.219-.297.177-.546.405-.42.386-.705.918-.043.08-.083.163-.372.786-.372 1.747 0 .95.375 1.716.05.103.107.202.227.394.535.709.348.355.802.607.064.035.13.068.807.407 1.818.407.754 0 1.413-.25.073-.027.146-.058.523-.223.916-.586.149-.138.28-.296l-.403-.461q-.171.212-.377.38-.285.235-.639.385l-.019.009q-.601.248-1.303.248-.813 0-1.473-.318-.045-.021-.089-.044-.368-.194-.655-.471-.255-.246-.446-.558-.058-.096-.108-.195-.3-.594-.326-1.326Zm13.694-3.605q-.66-.271-1.432-.271-.696 0-1.299.237-.243.096-.472.231-.316.188-.575.435-.388.37-.648.874v-1.723h-.674v10.025h.701v-4.382q.239.447.584.785.281.276.633.48.221.128.456.22.601.235 1.294.235.791 0 1.465-.28.197-.083.384-.189.361-.204.654-.481.378-.357.641-.835.044-.078.083-.158.386-.789.386-1.766 0-.994-.4-1.788-.033-.065-.069-.13-.248-.446-.598-.79-.309-.303-.697-.525-.203-.117-.417-.204Zm15.258 6.854q.688.292 1.5.292.822 0 1.514-.3.181-.077.352-.175.382-.218.688-.513.364-.35.622-.81.08-.143.147-.292.331-.735.331-1.619 0-.883-.331-1.618-.067-.15-.147-.292-.258-.46-.622-.811-.306-.295-.688-.512-.171-.099-.352-.176-.692-.3-1.514-.3-.812 0-1.5.293-.189.08-.369.183-.382.217-.688.512-.364.35-.621.81-.076.135-.139.275-.337.742-.337 1.636 0 .894.337 1.636.063.14.139.275.257.46.621.81.306.295.688.513.18.102.369.183Zm24.094-6.797q-.747-.328-1.639-.328-.882 0-1.63.273-.706.255-1.196.732-.03.028-.059.058l.407.406q.258-.235.553-.407.81-.474 1.898-.474.714 0 1.319.256.108.045.212.1.372.19.67.462.257.236.458.532.138.201.24.419.221.47.28 1.016h-4.116v.544h4.129q-.036.546-.238 1.022-.103.245-.251.471-.194.297-.442.537-.308.296-.699.506-.162.086-.332.153-.572.223-1.23.223-1.161 0-1.995-.522-.242-.151-.456-.346l-.407.42q.036.037.073.072.486.466 1.182.714.748.263 1.63.263.892 0 1.639-.328.158-.07.309-.154.44-.243.786-.583.337-.331.585-.753.149-.253.253-.523.249-.642.249-1.38 0-.758-.261-1.41-.101-.252-.241-.488-.237-.4-.556-.718-.356-.357-.815-.611-.151-.084-.309-.154Zm-119.239.355h2.857v-.629h-6.412v.63h2.854V74.5h.701v-6.679Zm6.569 7.674 3.75-8.303h-.712l-2.929 6.539-2.926-6.539h-.741l3.291 7.28-.393.883q-.321.714-.7 1.008-.093.072-.195.126-.312.168-.715.168-.388 0-.72-.137-.35-.143-.637-.438l-.352.53q.08.084.168.156.256.212.584.337l.026.01q.43.157.918.157.558 0 1.006-.222.158-.079.303-.185.553-.406.974-1.37Zm12.05.823v-2.433h-1.176v-6.693H73.69l-.095 2.407q-.113 2.016-.387 3.13-.213.866-.71 1.084-.14.062-.305.072h-.434v2.433h.673V74.5h6.915v1.818h.656Zm2.773-9.126h-.7V74.5h.618l5.206-6.231V74.5h.7v-7.308h-.615l-5.209 6.231v-6.23ZM97.013 74.5v-7.308h-2.967q-1.401 0-2.208.616-.227.174-.39.395-.413.561-.413 1.426 0 .82.386 1.367.042.06.089.117.027.033.056.065.474.52 1.318.704l-1.89 2.618h.769l1.808-2.533q.11.014.362.014h2.437V74.5h.643Zm12.337 0v-7.308h-5.127l-.123 2.52q-.072 1.373-.185 2.228-.109.851-.42 1.425-.184.343-.467.48-.192.094-.429.094-.113 0-.335-.054l-.072.601q.393.1.605.1.323 0 .582-.129.315-.155.536-.5.407-.633.574-1.655.168-1.022.253-2.533l.099-1.948h3.808V74.5h.701Zm37.083-7.308h-.7V74.5h.7v-3.36h4.956v3.36h.701v-7.308h-.701v3.333h-4.956v-3.333Zm18.228 0h-.7V74.5h.618l5.206-6.231V74.5h.701v-7.308h-.616l-5.209 6.231v-6.23Zm26.782 7.308v-7.308h-6.384V74.5h.7v-6.679h4.984V74.5h.7Zm3.724-7.308h-.7V74.5h.618l5.206-6.231V74.5h.701v-7.308h-.616l-5.209 6.231v-6.23ZM209.73 74.5v-7.308h-5.127l-.123 2.52q-.072 1.373-.185 2.228-.109.851-.42 1.425-.184.343-.467.48-.192.094-.429.094-.113 0-.335-.054l-.072.601q.393.1.605.1.323 0 .582-.129.315-.155.536-.5.407-.633.574-1.655.168-1.022.253-2.533l.099-1.948h3.808V74.5h.701Zm8.411 0v-7.308h-2.967q-1.401 0-2.208.616-.227.174-.39.395-.413.561-.413 1.426 0 .82.386 1.367.042.06.089.117.027.033.056.065.474.52 1.318.704l-1.89 2.618h.769l1.808-2.533q.109.014.362.014h2.437V74.5h.643Zm10.489 1.904v-2.52h-1.221v-6.692h-.7v6.693h-4.844v-6.693h-.7V74.5h6.791v1.904h.674Zm2.741-9.212h-.7V74.5h.618l5.206-6.231V74.5h.701v-7.308h-.616l-5.209 6.231v-6.23Zm9.548 0h-.7V74.5h.618l5.206-6.231V74.5h.701v-7.308h-.616l-5.209 6.231v-6.23Zm13.146 0h-.7V74.5h.618l5.206-6.231V74.5h.701v-7.308h-.616l-5.209 6.231v-6.23Zm-124.882.813q.547-.252 1.209-.252.617 0 1.134.226.129.056.251.126.253.144.466.332.305.27.528.632.068.11.125.224.262.53.296 1.174h-5.599q.048-.681.334-1.241.042-.083.09-.164.233-.39.56-.67.197-.169.428-.297.087-.049.178-.09Zm11.841 5.675q-.56.246-1.227.246-.677 0-1.24-.252-.137-.062-.267-.138-.243-.144-.449-.329-.356-.32-.601-.765l-.04-.076q-.343-.673-.343-1.52t.343-1.52l.04-.076q.247-.449.608-.77.203-.18.442-.32.138-.082.283-.146.557-.247 1.224-.247.658 0 1.211.24.154.067.3.153.276.16.504.372.326.305.552.718.026.047.05.096.336.665.336 1.5t-.336 1.5q-.024.049-.05.096-.223.409-.545.713-.23.217-.511.381-.139.08-.284.144Zm18.256-.013q-.567.259-1.252.259-.676 0-1.24-.252-.137-.062-.267-.138-.243-.144-.448-.329-.356-.32-.601-.765l-.041-.076q-.342-.673-.342-1.52t.342-1.52l.041-.076q.247-.449.608-.77.202-.18.441-.32.138-.082.284-.146.557-.247 1.223-.247.675 0 1.236.253.138.062.268.14.255.149.469.344.344.314.58.746.027.047.051.096.336.665.336 1.5t-.336 1.5q-.024.049-.051.096-.233.428-.573.742-.216.2-.476.352-.123.072-.252.131Zm-67.21-2.9q-.334-.423-.334-1.11 0-.707.343-1.143.555-.706 2.008-.706h2.283v3.64h-2.365q-1.398 0-1.935-.68Zm121.128 0q-.334-.423-.334-1.11 0-.707.343-1.143.555-.706 2.008-.706h2.283v3.64h-2.365q-1.399 0-1.935-.68ZM73.956 72.416q.208-1.107.28-2.772l.086-1.822h3.807v6.064h-4.928q.546-.366.755-1.47Zm41.993 1.148q-.635.418-1.548.418-.964 0-1.497-.41-.228-.177-.358-.408-.175-.311-.175-.72 0-.438.195-.755.112-.18.287-.322.485-.393 1.562-.393h2.495v1.37q-.273.673-.767 1.077-.093.077-.194.144Zm104.168 8.232q-.724-.657-2.045-.657-.635 0-1.229.156-.192.05-.381.117-.769.27-1.316.762l.349.503q.465-.42 1.128-.67.226-.086.459-.143.454-.11.935-.11 1.059 0 1.612.529l.005.004q.046.044.089.092.465.523.465 1.46v.588h-2.509q-1.425 0-2.078.567-.275.24-.433.541-.217.411-.217.936 0 .513.21.917.175.336.495.597.707.57 1.927.57.937 0 1.607-.355.42-.224.714-.558.179-.201.311-.443V88.5h.67v-4.635q0-1.232-.612-1.914-.056-.062-.116-.12l-.04-.036Zm4.905 6.41q.749.35 1.661.35.876 0 1.594-.338l.009-.004q.364-.172.657-.425.29-.25.512-.577l-.516-.376q-.264.366-.614.61-.17.118-.36.207l-.069.032q-.553.242-1.213.242-.719 0-1.315-.272-.112-.05-.219-.111-.278-.158-.507-.37-.329-.304-.556-.717l-.002-.003q-.381-.7-.381-1.607t.381-1.606l.002-.004q.23-.417.563-.722.226-.206.5-.361.116-.066.237-.12.588-.266 1.297-.266.66 0 1.213.242l.069.031q.19.09.36.208.35.243.614.609l.516-.376q-.222-.327-.512-.576-.293-.253-.657-.425l-.009-.005q-.718-.337-1.594-.337-.934 0-1.697.362-.105.05-.207.106-.393.219-.706.52-.356.345-.609.796-.054.096-.102.195-.374.775-.374 1.73 0 .893.337 1.635.063.14.139.275.247.442.594.782.319.313.721.54.119.068.243.126Zm7.672 0q.749.35 1.661.35.876 0 1.594-.338l.009-.004q.364-.172.657-.425.29-.25.512-.577l-.516-.376q-.264.366-.614.61-.17.118-.36.207l-.069.032q-.553.242-1.213.242-.719 0-1.315-.272-.112-.05-.219-.111-.278-.158-.507-.37-.329-.304-.556-.717l-.002-.003q-.381-.7-.381-1.607t.381-1.606l.002-.004q.23-.417.563-.722.226-.206.5-.361.116-.066.237-.12.588-.266 1.297-.266.66 0 1.213.242l.069.031q.19.09.36.208.35.243.614.609l.516-.376q-.222-.327-.512-.576-.293-.253-.657-.425l-.009-.005q-.718-.337-1.594-.337-.934 0-1.697.362-.105.05-.207.106-.393.219-.706.52-.356.345-.609.796-.054.096-.102.195-.374.775-.374 1.73 0 .893.337 1.635.063.14.139.275.247.442.594.782.319.313.721.54.119.068.243.126Zm10.971-6.41q-.724-.657-2.045-.657-.635 0-1.229.156-.192.05-.381.117-.769.27-1.316.762l.349.503q.465-.42 1.128-.67.226-.086.459-.143.454-.11.935-.11 1.059 0 1.612.529l.005.004q.046.044.089.092.465.523.465 1.46v.588h-2.509q-1.425 0-2.078.567-.275.24-.433.541-.217.411-.217.936 0 .513.21.917.175.336.495.597.707.57 1.927.57.937 0 1.607-.355.42-.224.714-.558.179-.201.311-.443V88.5h.67v-4.635q0-1.232-.612-1.914-.056-.062-.116-.12l-.04-.036Zm19.236 0q-.724-.657-2.045-.657-.635 0-1.229.156-.192.05-.381.117-.769.27-1.316.762l.349.503q.465-.42 1.128-.67.226-.086.459-.143.454-.11.935-.11 1.059 0 1.612.529l.005.004q.046.044.089.092.465.523.465 1.46v.588h-2.509q-1.425 0-2.078.567-.275.24-.433.541-.217.411-.217.936 0 .513.21.917.175.336.495.597.707.57 1.927.57.937 0 1.607-.355.42-.224.714-.558.179-.201.311-.443V88.5h.67v-4.635q0-1.232-.612-1.914-.056-.062-.116-.12l-.04-.036ZM212.626 88.5v-7.308h-.646l-3.315 5.53-3.305-5.53h-.687V88.5h.646v-6.173l3.161 5.237h.325l3.175-5.25V88.5h.646Zm39.13-3.387h1.722l2.437 3.387h.838l-2.714-3.753 2.505-3.555h-.769l-2.297 3.32h-1.722v-3.32h-.701v3.32h-1.706l-2.296-3.32h-.769l2.505 3.555-2.731 3.753h.854l2.437-3.387h1.706V88.5h.701v-3.387Zm-32.529 2.45q-.635.418-1.548.418-.964 0-1.497-.41-.228-.177-.358-.408-.175-.311-.175-.72 0-.438.195-.755.112-.18.287-.322.485-.393 1.562-.393h2.495v1.37q-.273.673-.766 1.077-.094.077-.195.144Zm23.548 0q-.635.418-1.548.418-.964 0-1.497-.41-.228-.177-.358-.408-.175-.311-.175-.72 0-.438.195-.755.112-.18.287-.322.485-.393 1.562-.393h2.495v1.37q-.273.673-.766 1.077-.094.077-.195.144Zm19.236 0q-.635.418-1.548.418-.964 0-1.497-.41-.228-.177-.358-.408-.175-.311-.175-.72 0-.438.195-.755.112-.18.287-.322.485-.393 1.562-.393h2.495v1.37q-.273.673-.766 1.077-.094.077-.195.144Z" fill="#000" fill-rule="evenodd"/></svg>