<svg width="57" height="57" fill="none" xmlns="http://www.w3.org/2000/svg"><defs><clipPath id="a"><path fill="#fff" fill-opacity="0" d="M0 0h57v57H0z"/></clipPath></defs><g clip-path="url(#a)"><path d="m4.75 52.25 3.22-11.8A23.706 23.706 0 0 1 4.74 28.5c0-13.12 10.64-23.75 23.76-23.75 13.11 0 23.75 10.63 23.75 23.75 0 13.11-10.64 23.75-23.75 23.75-4.2 0-8.33-1.11-11.95-3.22l-11.8 3.22Zm15.17-34.9c-.3.02-.6.1-.88.24-.26.15-.49.33-.7.54-.28.27-.44.5-.62.73a6.497 6.497 0 0 0-1.34 3.98c.01 1.17.31 2.3.79 3.36.97 2.14 2.57 4.41 4.68 6.51.51.51 1 1.01 1.54 1.49 2.62 2.3 5.74 3.97 9.12 4.86l1.35.2c.44.03.88-.01 1.32-.03.69-.03 1.37-.22 1.98-.55.39-.21.58-.31.91-.52 0 0 .1-.07.29-.21.32-.24.52-.41.79-.69.19-.2.37-.44.5-.71.18-.39.37-1.13.44-1.74.06-.47.04-.73.04-.89-.01-.25-.23-.52-.46-.63l-1.38-.62s-2.06-.9-3.33-1.47a.998.998 0 0 0-.42-.1c-.16-.02-.32 0-.48.05-.15.05-.29.14-.41.25v-.01c-.02 0-.17.14-1.89 2.22-.1.13-.24.23-.39.29-.16.05-.33.06-.49.02-.15-.04-.3-.09-.45-.16-.29-.12-.4-.17-.6-.26h-.01c-1.36-.59-2.62-1.4-3.73-2.38-.3-.26-.58-.54-.86-.82-.93-.89-1.75-1.9-2.42-3.01l-.14-.22c-.1-.16-.19-.32-.25-.49-.09-.35.15-.63.15-.63s.58-.63.84-.97c.23-.29.44-.58.63-.89.28-.45.37-.92.22-1.27-.66-1.63-1.35-3.25-2.06-4.85-.14-.32-.56-.55-.93-.59-.13-.02-.26-.03-.39-.04-.32-.02-.64-.01-.96.01Z" fill="#099A29"/></g></svg>