<svg width="33" height="33" fill="none" xmlns="http://www.w3.org/2000/svg"><defs><clipPath id="a"><path fill="#fff" fill-opacity="0" d="M0 0h33v33H0z"/></clipPath></defs><path d="M0 0h33v33H0z"/><g clip-path="url(#a)"><path d="M16.5 2.06C9.66 2.06 4.12 7.6 4.12 14.43c0 3.42 1.38 6.51 3.62 8.75s7.52 5.48 7.83 8.89c.04.51.41.93.93.93.51 0 .88-.42.92-.93.31-3.41 5.59-6.65 7.83-8.89s3.62-5.33 3.62-8.75c0-6.83-5.54-12.37-12.37-12.37Z" fill="#F43"/><path d="M16.5 18.76c2.39 0 4.33-1.94 4.33-4.33s-1.94-4.33-4.33-4.33c-2.4 0-4.34 1.94-4.34 4.33s1.94 4.33 4.34 4.33Z" fill="#FFF"/></g></svg>